Coordinates
version=1
nRows=24
nColumns=24
inDegrees=yes

Units are S.I. units (second, meters, Newtons, ...)
Angles are in degrees.

endheader
time	pelvis_tilt	pelvis_list	pelvis_rotation	pelvis_tx	pelvis_ty	pelvis_tz	hip_flexion_r	hip_adduction_r	hip_rotation_r	knee_angle_r	ankle_angle_r	subtalar_angle_r	mtp_angle_r	hip_flexion_l	hip_adduction_l	hip_rotation_l	knee_angle_l	ankle_angle_l	subtalar_angle_l	mtp_angle_l	lumbar_extension	lumbar_bending	lumbar_rotation
      0.94250000	     -3.43467811	     -7.89938127	     -4.25559150	     -0.22088270	      0.99428514	      0.32407943	     -5.86352940	      8.96683295	     -3.67824700	    -12.43017303	      7.74847814	     -7.79613666	     -1.76365271	     25.22648538	     -9.54656119	    -12.78758822	      2.22142663	      0.01841507	     -5.39944202	     -2.23909747	     -9.14906884	      9.33345952	      6.65485405
      0.94666667	     -3.26418754	     -7.84480642	     -4.36124074	     -0.21482686	      0.99401727	      0.32410759	     -6.25509347	      8.81612350	     -3.58040933	    -12.77101770	      7.80729194	     -7.65373798	     -1.63563264	     25.01008643	     -9.52626991	    -12.55588579	      2.04462234	     -0.04000616	     -5.50681282	     -2.11344016	     -9.32424927	      9.17342414	      6.77806924
      0.95083333	     -3.19544126	     -7.80890362	     -4.47984622	     -0.20880601	      0.99360846	      0.32423164	     -6.51106734	      8.70189202	     -3.45678351	    -13.16433900	      7.83500599	     -7.60702108	     -1.59969839	     24.95092919	     -9.54876085	    -12.34634468	      1.69533035	     -0.03706556	     -5.57936062	     -2.08056956	     -9.37960286	      9.03532948	      6.81347570
      0.95500000	     -2.93200175	     -7.68205799	     -4.64068906	     -0.20266074	      0.99364018	      0.32437537	     -6.97465246	      8.45010612	     -3.31641539	    -13.54974871	      7.84820361	     -7.37877110	     -1.45479031	     24.58417047	     -9.47590896	    -12.17322833	      1.43748126	     -0.23389333	     -5.86736097	     -1.95654348	     -9.65744025	      8.75704579	      7.09296556
      0.95916667	     -2.71353729	     -7.58084699	     -4.80141190	     -0.19655823	      0.99361909	      0.32458474	     -7.36974219	      8.23881022	     -3.14716277	    -13.96733464	      7.80964416	     -7.27414992	     -1.28053299	     24.30643473	     -9.44180776	    -12.02863781	      1.04294681	     -0.38089685	     -6.10446789	     -1.81131856	     -9.88610615	      8.51117951	      7.25968020
      0.96333333	     -2.55075671	     -7.46957472	     -4.97012246	     -0.19044308	      0.99354757	      0.32481843	     -7.67789708	      8.01937885	     -2.97413740	    -14.43461098	      7.75219950	     -7.16848228	     -1.12436685	     24.09648593	     -9.40409726	    -11.88647240	      0.57801066	     -0.54747281	     -6.36541044	     -1.68881841	    -10.05207529	      8.26207463	      7.42315517
      0.96750000	     -2.35858426	     -7.34508778	     -5.15839649	     -0.18431478	      0.99358262	      0.32509154	     -7.98783992	      7.77549797	     -2.81188521	    -14.95048393	      7.65308750	     -7.06665474	     -0.93803392	     23.83501380	     -9.35654188	    -11.77724905	      0.10285448	     -0.80442697	     -6.70843405	     -1.55248027	    -10.23306814	      7.96729547	      7.63904013
      0.97166667	     -2.10012496	     -7.20495388	     -5.31745338	     -0.17813622	      0.99376391	      0.32529622	     -8.35728656	      7.50347900	     -2.68860388	    -15.47070862	      7.47920951	     -6.95025840	     -0.53310352	     23.50291289	     -9.27437117	    -11.68803649	     -0.41177771	     -1.02191239	     -7.02997197	     -1.26494696	    -10.48353121	      7.64959469	      7.89245716
      0.97583333	     -2.02664989	     -7.10256438	     -5.53012773	     -0.17208698	      0.99367595	      0.32562880	     -8.47004640	      7.29725058	     -2.46929901	    -16.10941341	      7.34554605	     -6.90732334	     -0.41718901	     23.39553618	     -9.26750947	    -11.60379058	     -1.00135698	     -1.32520300	     -7.39338611	     -1.19396240	    -10.55409465	      7.41251136	      7.94184139
      0.98000000	     -1.88606077	     -6.95023844	     -5.72216093	     -0.16594351	      0.99375205	      0.32585180	     -8.62683453	      7.01478324	     -2.33598438	    -16.78227942	      7.13340748	     -6.81478632	     -0.23248988	     23.17884550	     -9.18172084	    -11.52009460	     -1.53693083	     -1.73179575	     -7.87043460	     -1.08704019	    -10.67298574	      7.09786738	      8.19365537
      0.98416667	     -1.74626970	     -6.80688890	     -5.91272221	     -0.15982893	      0.99386725	      0.32608642	     -8.74801718	      6.74318676	     -2.20175080	    -17.50876598	      6.88337880	     -6.73000863	     -0.02897619	     22.97000989	     -9.10625326	    -11.47158804	     -2.10242072	     -2.13681243	     -8.31631095	     -0.97811261	    -10.79193421	      6.79003903	      8.37486482
      0.98833333	     -1.62399660	     -6.66074975	     -6.08708686	     -0.15370442	      0.99398680	      0.32628297	     -8.81490867	      6.46903875	     -2.09601379	    -18.29009922	      6.57752155	     -6.65752662	      0.16770361	     22.78504002	     -9.02171069	    -11.44557874	     -2.68347290	     -2.56676621	     -8.75610629	     -0.88214228	    -10.88714540	      6.48687698	      8.53626826
      0.99250000	     -1.50681983	     -6.50829245	     -6.25908883	     -0.14761040	      0.99413393	      0.32643433	     -8.82840821	      6.18393778	     -2.00882681	    -19.14726397	      6.24288075	     -6.59013628	      0.39218866	     22.59810638	     -8.92350117	    -11.42273018	     -3.25224343	     -3.03433953	     -9.22658711	     -0.78168381	    -10.97762851	      6.17527606	      8.71151125
      0.99666667	     -1.32054801	     -6.34799457	     -6.40663785	     -0.14152907	      0.99442289	      0.32650606	     -8.87410740	      5.87299914	     -1.99017246	    -20.05104055	      5.80078046	     -6.59319994	      7.62614588	     22.33167033	     -8.80072287	    -11.44484837	     -3.80271485	     -3.53386084	     -9.67003439	      2.43551107	    -11.15129986	      5.85561931	      8.95525164
      1.00083333	     -1.26593533	     -6.18975250	     -6.55991212	     -0.13544548	      0.99454163	      0.32660554	     -8.73369191	      5.58876745	     -1.93973556	    -21.04099965	      5.33678024	     -6.56207982	      7.64477505	     22.21802325	     -8.69363556	    -11.46424774	     -4.38689595	     -3.99051824	    -10.10166333	      2.43908385	    -11.16163710	      5.55090645	      8.99267410
      1.00500000	     -1.20201374	     -6.01956781	     -6.69823001	     -0.12944142	      0.99468161	      0.32659481	     -8.53471702	      5.27990020	     -1.94291603	    -22.14728909	      4.93499090	     -6.49325685	      7.71515425	     22.08932301	     -8.55697999	    -11.45923652	     -4.94249461	     -4.49592446	    -10.60812346	      2.45021744	    -11.19359884	      5.24711159	      9.16692663
      1.00916667	     -1.13389585	     -5.83935377	     -6.81768209	     -0.12338023	      0.99487694	      0.32658000	     -8.31694043	      4.96413954	     -1.95603797	    -23.26767155	      4.34257249	     -6.46838276	      7.77833392	     21.95460825	     -8.40966927	    -11.49991940	     -5.50911999	     -4.89507999	    -10.98657343	      2.45609455	    -11.21531502	      4.92054853	      9.21028777
      1.01333333	     -1.07046411	     -5.65279606	     -6.94260285	     -0.11744596	      0.99506938	      0.32648901	     -8.01337139	      4.63102329	     -1.99484478	    -24.52886474	      3.86051362	     -6.41998539	      7.92114623	     21.82118888	     -8.24816055	    -11.54209753	     -6.04777764	     -5.38102144	    -11.46995197	      2.46760556	    -11.24839295	      4.60874907	      9.35318028
      1.01750000	     -1.03367702	     -5.44528634	     -7.05010712	     -0.11146748	      0.99524868	      0.32639016	     -7.64481869	      4.28100051	     -2.05330903	    -25.83536837	      3.26437150	     -6.39299291	      8.11992610	     21.71559143	     -8.06527972	    -11.60446963	     -6.59196299	     -5.77789021	    -11.88588870	      2.48065995	    -11.23994574	      4.26735103	      9.43516165
      1.02166667	     -1.00742870	     -5.22327724	     -7.15129236	     -0.10551667	      0.99543272	      0.32622568	     -7.21081857	      3.91094469	     -2.13223206	    -27.21996133	      2.62643731	     -6.40970585	      8.32777970	     21.61475794	     -7.86259727	    -11.68677951	     -7.11738218	     -6.14631476	    -12.24895474	      2.48903879	    -11.21555777	      3.93265251	      9.47153537
      1.02583333	     -1.02732928	     -4.99809297	     -7.23698504	     -0.09963142	      0.99552395	      0.32596914	     -6.66881925	      3.53487295	     -2.23980387	    -28.69334684	      1.97424969	     -6.36525119	      8.80260984	     21.57714560	     -7.65026313	    -11.73742514	     -7.66622539	     -6.40083357	    -12.65138440	      2.50368954	    -11.14197276	      3.61045244	      9.58163511
      1.03000000	     -0.97740354	     -4.73538267	     -7.30594809	     -0.09372170	      0.99577096	      0.32577677	     -6.17545999	      3.12498919	     -2.33449712	    -30.18590926	      1.25330673	     -6.48559678	      9.04127691	     21.44482801	     -7.39748270	    -11.85789349	     -8.16739288	     -6.70818093	    -12.89935716	      2.50292426	    -11.14262411	      3.22118668	      9.49583859
      1.03416667	     -0.98263191	     -4.45720308	     -7.37548591	     -0.08785419	      0.99592242	      0.32551916	     -5.56373514	      2.69357761	     -2.44960633	    -31.76964127	      0.54838778	     -6.55168366	      9.30593539	     21.37043273	     -7.12798504	    -11.96836947	     -8.66486358	     -6.92811081	    -13.18078615	      2.49651061	    -11.07642109	      2.82308031	      9.49475039
      1.03833333	     -1.04781092	     -4.17194516	     -7.44288345	     -0.08206698	      0.99593693	      0.32517898	     -4.82895386	      2.25253280	     -2.57325984	    -33.44059569	     -0.13605090	     -6.58454194	      9.81264540	     21.37493234	     -6.85199483	    -12.06928320	     -9.19094220	     -7.02431690	    -13.48955956	      2.47370238	    -10.94405637	      2.46162051	      9.54034261
